<?xml version="1.0" encoding="UTF-8"?>
<!DOCTYPE svg PUBLIC "-//W3C//DTD SVG 1.1//EN" "http://www.w3.org/Graphics/SVG/1.1/DTD/svg11.dtd">
<svg xmlns="http://www.w3.org/2000/svg" version="1.1" width="500px" height="500px" style="shape-rendering:geometricPrecision; text-rendering:geometricPrecision; image-rendering:optimizeQuality; fill-rule:evenodd; clip-rule:evenodd" xmlns:xlink="http://www.w3.org/1999/xlink">
<g><path style="opacity:0.361" fill="#414141" d="M 103.5,48.5 C 107.196,47.6494 110.529,48.6494 113.5,51.5C 110.167,50.5 106.833,49.5 103.5,48.5 Z"/></g>
<g><path style="opacity:1" fill="#e8e8e8" d="M 103.5,48.5 C 106.833,49.5 110.167,50.5 113.5,51.5C 115.819,51.9925 117.819,52.9925 119.5,54.5C 124.081,57.6223 129.081,59.9556 134.5,61.5C 136.819,61.9925 138.819,62.9925 140.5,64.5C 145.746,67.9552 151.413,70.6218 157.5,72.5C 159.153,72.6596 160.486,73.3263 161.5,74.5C 166.746,77.9552 172.413,80.6218 178.5,82.5C 179.514,83.6737 180.847,84.3404 182.5,84.5C 187.746,87.9552 193.413,90.6218 199.5,92.5C 201.819,92.9925 203.819,93.9925 205.5,95.5C 211.412,99.2881 217.745,102.288 224.5,104.5C 229.746,107.955 235.413,110.622 241.5,112.5C 243.819,112.992 245.819,113.992 247.5,115.5C 253.412,119.288 259.745,122.288 266.5,124.5C 273.077,128.621 280.077,131.954 287.5,134.5C 289.153,134.66 290.486,135.326 291.5,136.5C 295.416,139.29 299.749,141.29 304.5,142.5C 306.153,142.66 307.486,143.326 308.5,144.5C 310.181,146.008 312.181,147.008 314.5,147.5C 314.923,148.265 315.257,149.098 315.5,150C 314.68,151.8 314.014,153.634 313.5,155.5C 313.388,158.977 311.721,160.477 308.5,160C 291.427,151.924 274.427,143.757 257.5,135.5C 257.027,134.094 256.027,133.427 254.5,133.5C 235.745,125.622 217.412,116.955 199.5,107.5C 198.817,105.824 197.483,105.157 195.5,105.5C 188.745,103.288 182.412,100.288 176.5,96.5C 174.967,94.7549 172.967,93.7549 170.5,93.5C 157.533,88.0152 144.866,82.0152 132.5,75.5C 131.486,74.3263 130.153,73.6596 128.5,73.5C 123.081,71.9556 118.081,69.6223 113.5,66.5C 113.38,65.4138 112.713,64.7472 111.5,64.5C 108.912,66.8785 107.245,69.8785 106.5,73.5C 102.712,79.4116 99.7119,85.745 97.5,92.5C 97.6716,93.4916 97.3382,94.1583 96.5,94.5C 95.3263,95.5137 94.6596,96.847 94.5,98.5C 92.0431,101.751 90.3764,105.418 89.5,109.5C 88.3263,110.514 87.6596,111.847 87.5,113.5C 84.0448,118.746 81.3782,124.413 79.5,130.5C 79.0075,132.819 78.0075,134.819 76.5,136.5C 75.3263,137.514 74.6596,138.847 74.5,140.5C 72.3754,143.088 71.0421,146.088 70.5,149.5C 70.6716,150.492 70.3382,151.158 69.5,151.5C 68.3263,152.514 67.6596,153.847 67.5,155.5C 67.0075,157.819 66.0075,159.819 64.5,161.5C 62.0431,164.751 60.3764,168.418 59.5,172.5C 59.3404,174.153 58.6737,175.486 57.5,176.5C 54.7105,180.416 52.7105,184.749 51.5,189.5C 51.3404,191.153 50.6737,192.486 49.5,193.5C 48.3263,194.514 47.6596,195.847 47.5,197.5C 47.6716,198.492 47.3382,199.158 46.5,199.5C 45.3263,200.514 44.6596,201.847 44.5,203.5C 42.7073,205.426 41.7073,207.759 41.5,210.5C 40.3411,214.151 38.6744,217.485 36.5,220.5C 34.3754,223.088 33.0421,226.088 32.5,229.5C 32.0075,231.819 31.0075,233.819 29.5,235.5C 28.3263,236.514 27.6596,237.847 27.5,239.5C 27.6716,240.492 27.3382,241.158 26.5,241.5C 24.3754,244.088 23.0421,247.088 22.5,250.5C 21.6743,253.485 20.341,256.151 18.5,258.5C 17.2745,259.937 16.2745,261.604 15.5,263.5C 14.675,264.386 13.675,264.719 12.5,264.5C 10.9674,262.755 8.96741,261.755 6.5,261.5C 6.16667,261.5 5.83333,261.5 5.5,261.5C 4.69929,259.958 4.36596,258.292 4.5,256.5C 4.6596,254.847 5.32627,253.514 6.5,252.5C 7.67373,251.486 8.3404,250.153 8.5,248.5C 8.32842,247.508 8.66175,246.842 9.5,246.5C 10.9313,245.22 11.5979,243.553 11.5,241.5C 13.3255,236.516 15.6589,231.849 18.5,227.5C 20.2132,226.365 20.8799,224.698 20.5,222.5C 22.3255,217.516 24.6589,212.849 27.5,208.5C 28.9313,207.22 29.5979,205.553 29.5,203.5C 31.6588,197.849 34.3255,192.516 37.5,187.5C 39.2132,186.365 39.8799,184.698 39.5,182.5C 41.3255,177.516 43.6589,172.849 46.5,168.5C 48.2927,166.574 49.2927,164.241 49.5,161.5C 51.3255,156.516 53.6589,151.849 56.5,147.5C 58.2132,146.365 58.8799,144.698 58.5,142.5C 60.3255,137.516 62.6589,132.849 65.5,128.5C 67.2927,126.574 68.2927,124.241 68.5,121.5C 69.9922,117.182 71.9922,113.182 74.5,109.5C 75.9313,108.22 76.5979,106.553 76.5,104.5C 78.3255,99.5156 80.6589,94.8489 83.5,90.5C 84.6737,89.4863 85.3404,88.153 85.5,86.5C 86.9313,85.2196 87.5979,83.5529 87.5,81.5C 89.3255,76.5156 91.6589,71.8489 94.5,67.5C 95.9313,66.2196 96.5979,64.5529 96.5,62.5C 98.3255,57.5156 100.659,52.8489 103.5,48.5 Z"/></g>
<g><path style="opacity:0.086" fill="#363636" d="M 119.5,54.5 C 124.919,56.0444 129.919,58.3777 134.5,61.5C 129.081,59.9556 124.081,57.6223 119.5,54.5 Z"/></g>
<g><path style="opacity:0.067" fill="#272727" d="M 96.5,62.5 C 96.5979,64.5529 95.9313,66.2196 94.5,67.5C 94.4021,65.4471 95.0687,63.7804 96.5,62.5 Z"/></g>
<g><path style="opacity:0.255" fill="#505050" d="M 113.5,66.5 C 112.504,66.5858 111.671,66.2524 111,65.5C 110.14,68.6328 108.64,71.2995 106.5,73.5C 107.245,69.8785 108.912,66.8785 111.5,64.5C 112.713,64.7472 113.38,65.4138 113.5,66.5 Z"/></g>
<g><path style="opacity:0.129" fill="#3a3a3a" d="M 140.5,64.5 C 146.587,66.3782 152.254,69.0448 157.5,72.5C 151.413,70.6218 145.746,67.9552 140.5,64.5 Z"/></g>
<g><path style="opacity:0.067" fill="#343434" d="M 128.5,73.5 C 130.153,73.6596 131.486,74.3263 132.5,75.5C 130.62,75.7709 129.287,75.1042 128.5,73.5 Z"/></g>
<g><path style="opacity:0.075" fill="#363636" d="M 161.5,74.5 C 167.587,76.3782 173.254,79.0448 178.5,82.5C 172.413,80.6218 166.746,77.9552 161.5,74.5 Z"/></g>
<g><path style="opacity:0.133" fill="#3c3c3c" d="M 106.5,73.5 C 104.288,80.255 101.288,86.5884 97.5,92.5C 99.7119,85.745 102.712,79.4116 106.5,73.5 Z"/></g>
<g><path style="opacity:0.067" fill="#262626" d="M 178.5,82.5 C 180.38,82.2291 181.713,82.8958 182.5,84.5C 180.847,84.3404 179.514,83.6737 178.5,82.5 Z"/></g>
<g><path style="opacity:0.078" fill="#282828" d="M 87.5,81.5 C 87.5979,83.5529 86.9313,85.2196 85.5,86.5C 85.4021,84.4471 86.0687,82.7804 87.5,81.5 Z"/></g>
<g><path style="opacity:0.071" fill="#353535" d="M 182.5,84.5 C 188.587,86.3782 194.254,89.0448 199.5,92.5C 193.413,90.6218 187.746,87.9552 182.5,84.5 Z"/></g>
<g><path style="opacity:0.039" fill="#272727" d="M 85.5,86.5 C 85.3404,88.153 84.6737,89.4863 83.5,90.5C 83.2291,88.6203 83.8958,87.287 85.5,86.5 Z"/></g>
<g><path style="opacity:0.365" fill="#545454" d="M 170.5,93.5 C 172.967,93.7549 174.967,94.7549 176.5,96.5C 174.033,96.2451 172.033,95.2451 170.5,93.5 Z"/></g>
<g><path style="opacity:0.086" fill="#303030" d="M 96.5,94.5 C 96.7709,96.3797 96.1042,97.713 94.5,98.5C 94.6596,96.847 95.3263,95.5137 96.5,94.5 Z"/></g>
<g><path style="opacity:0.157" fill="#3f3f3f" d="M 205.5,95.5 C 212.255,97.7119 218.588,100.712 224.5,104.5C 217.745,102.288 211.412,99.2881 205.5,95.5 Z"/></g>
<g><path style="opacity:0.153" fill="#3d3d3d" d="M 94.5,98.5 C 93.6236,102.582 91.9569,106.249 89.5,109.5C 90.3764,105.418 92.0431,101.751 94.5,98.5 Z"/></g>
<g><path style="opacity:0.063" fill="#333333" d="M 224.5,104.5 C 230.587,106.378 236.254,109.045 241.5,112.5C 235.413,110.622 229.746,107.955 224.5,104.5 Z"/></g>
<g><path style="opacity:0.937" fill="#909090" d="M 195.5,105.5 C 197.483,105.157 198.817,105.824 199.5,107.5C 197.847,107.34 196.514,106.674 195.5,105.5 Z"/></g>
<g><path style="opacity:0.051" fill="#232323" d="M 76.5,104.5 C 76.5979,106.553 75.9313,108.22 74.5,109.5C 74.4021,107.447 75.0687,105.78 76.5,104.5 Z"/></g>
<g><path style="opacity:0.067" fill="#292929" d="M 89.5,109.5 C 89.7709,111.38 89.1042,112.713 87.5,113.5C 87.6596,111.847 88.3263,110.514 89.5,109.5 Z"/></g>
<g><path style="opacity:0.153" fill="#3d3d3d" d="M 247.5,115.5 C 254.255,117.712 260.588,120.712 266.5,124.5C 259.745,122.288 253.412,119.288 247.5,115.5 Z"/></g>
<g><path style="opacity:0.153" fill="#3a3a3a" d="M 87.5,113.5 C 85.6218,119.587 82.9552,125.254 79.5,130.5C 81.3782,124.413 84.0448,118.746 87.5,113.5 Z"/></g>
<g><path style="opacity:0.055" fill="#282828" d="M 68.5,121.5 C 68.2927,124.241 67.2927,126.574 65.5,128.5C 65.7073,125.759 66.7073,123.426 68.5,121.5 Z"/></g>
<g><path style="opacity:0.141" fill="#3b3b3b" d="M 266.5,124.5 C 273.923,127.046 280.923,130.379 287.5,134.5C 280.077,131.954 273.077,128.621 266.5,124.5 Z"/></g>
<g><path style="opacity:0.125" fill="#3a3a3a" d="M 254.5,133.5 C 256.027,133.427 257.027,134.094 257.5,135.5C 255.973,135.573 254.973,134.906 254.5,133.5 Z"/></g>
<g><path style="opacity:0.118" fill="#393939" d="M 76.5,136.5 C 76.7709,138.38 76.1042,139.713 74.5,140.5C 74.6596,138.847 75.3263,137.514 76.5,136.5 Z"/></g>
<g><path style="opacity:0.141" fill="#383838" d="M 291.5,136.5 C 296.251,137.71 300.584,139.71 304.5,142.5C 299.749,141.29 295.416,139.29 291.5,136.5 Z"/></g>
<g><path style="opacity:0.18" fill="#414141" d="M 74.5,140.5 C 73.9579,143.912 72.6246,146.912 70.5,149.5C 71.0421,146.088 72.3754,143.088 74.5,140.5 Z"/></g>
<g><path style="opacity:0.055" fill="#2a2a2a" d="M 308.5,144.5 C 311.089,144.461 313.089,145.461 314.5,147.5C 312.181,147.008 310.181,146.008 308.5,144.5 Z"/></g>
<g><path style="opacity:0.71" fill="#595959" d="M 58.5,142.5 C 58.8799,144.698 58.2132,146.365 56.5,147.5C 56.4021,145.447 57.0687,143.78 58.5,142.5 Z"/></g>
<g><path style="opacity:0.071" fill="#2b2b2b" d="M 314.5,147.5 C 315.995,147.415 316.995,148.081 317.5,149.5C 316.639,151.911 315.306,153.911 313.5,155.5C 314.014,153.634 314.68,151.8 315.5,150C 315.257,149.098 314.923,148.265 314.5,147.5 Z"/></g>
<g><path style="opacity:0.075" fill="#2e2e2e" d="M 69.5,151.5 C 69.7709,153.38 69.1042,154.713 67.5,155.5C 67.6596,153.847 68.3263,152.514 69.5,151.5 Z"/></g>
<g><path style="opacity:0.09" fill="#2c2c2c" d="M 49.5,161.5 C 49.2927,164.241 48.2927,166.574 46.5,168.5C 46.7073,165.759 47.7073,163.426 49.5,161.5 Z"/></g>
<g><path style="opacity:0.173" fill="#454545" d="M 64.5,161.5 C 63.6236,165.582 61.9569,169.249 59.5,172.5C 60.3764,168.418 62.0431,164.751 64.5,161.5 Z"/></g>
<g><path style="opacity:0.192" fill="#363636" d="M 302.5,184.5 C 318.328,183.339 334.328,183.172 350.5,184C 356.974,184.908 362.64,187.408 367.5,191.5C 361.269,188.09 354.603,186.09 347.5,185.5C 332.676,184.504 317.676,184.171 302.5,184.5 Z"/></g>
<g><path style="opacity:0.895" fill="#d9d9d9" d="M 302.5,184.5 C 317.676,184.171 332.676,184.504 347.5,185.5C 332.833,185.5 318.167,185.5 303.5,185.5C 303.5,191.833 303.5,198.167 303.5,204.5C 317.504,204.333 331.504,204.5 345.5,205C 347.119,205.236 348.119,206.069 348.5,207.5C 346.901,207.768 345.568,207.434 344.5,206.5C 330.677,205.504 316.677,205.171 302.5,205.5C 302.5,198.5 302.5,191.5 302.5,184.5 Z"/></g>
<g><path style="opacity:0.204" fill="#3e3e3e" d="M 57.5,176.5 C 56.2895,181.251 54.2895,185.584 51.5,189.5C 52.7105,184.749 54.7105,180.416 57.5,176.5 Z"/></g>
<g><path style="opacity:1" fill="#f7f7f7" d="M 161.5,184.5 C 161.427,186.027 162.094,187.027 163.5,187.5C 163.5,187.833 163.5,188.167 163.5,188.5C 163.166,191.491 164.166,193.824 166.5,195.5C 166.12,197.698 166.787,199.365 168.5,200.5C 168.12,202.698 168.787,204.365 170.5,205.5C 171.404,206.209 171.737,207.209 171.5,208.5C 171.12,210.698 171.787,212.365 173.5,213.5C 173.12,215.698 173.787,217.365 175.5,218.5C 175.5,218.833 175.5,219.167 175.5,219.5C 175.166,222.491 176.166,224.824 178.5,226.5C 178.12,228.698 178.787,230.365 180.5,231.5C 180.12,233.698 180.787,235.365 182.5,236.5C 183.404,237.209 183.737,238.209 183.5,239.5C 183.12,241.698 183.787,243.365 185.5,244.5C 185.12,246.698 185.787,248.365 187.5,249.5C 187.12,251.698 187.787,253.365 189.5,254.5C 189.5,254.833 189.5,255.167 189.5,255.5C 189.166,258.491 190.166,260.824 192.5,262.5C 192.12,264.698 192.787,266.365 194.5,267.5C 194.12,269.698 194.787,271.365 196.5,272.5C 196.12,274.698 196.787,276.365 198.5,277.5C 199.434,278.568 199.768,279.901 199.5,281.5C 199.66,283.153 200.326,284.486 201.5,285.5C 201.5,285.833 201.5,286.167 201.5,286.5C 201.66,288.153 202.326,289.486 203.5,290.5C 203.5,290.833 203.5,291.167 203.5,291.5C 203.584,294.327 204.25,296.994 205.5,299.5C 198.167,300.833 190.833,300.833 183.5,299.5C 176.681,279.854 169.847,260.188 163,240.5C 162.617,239.944 162.117,239.611 161.5,239.5C 160.833,234.167 160.167,234.167 159.5,239.5C 156.88,243.343 155.213,247.676 154.5,252.5C 151.398,258.802 149.064,265.469 147.5,272.5C 147.768,274.099 147.434,275.432 146.5,276.5C 143.342,281.633 141.342,287.3 140.5,293.5C 138.912,295.113 137.912,297.113 137.5,299.5C 130.345,300.655 123.012,300.822 115.5,300C 114.199,298.384 114.199,296.884 115.5,295.5C 117.213,294.365 117.88,292.698 117.5,290.5C 119.213,289.365 119.88,287.698 119.5,285.5C 121.655,283.383 122.655,280.716 122.5,277.5C 124.213,276.365 124.88,274.698 124.5,272.5C 126.834,270.824 127.834,268.491 127.5,265.5C 127.5,265.167 127.5,264.833 127.5,264.5C 129.213,263.365 129.88,261.698 129.5,259.5C 131.213,258.365 131.88,256.698 131.5,254.5C 133.213,253.365 133.88,251.698 133.5,249.5C 135.213,248.365 135.88,246.698 135.5,244.5C 135.263,243.209 135.596,242.209 136.5,241.5C 138.213,240.365 138.88,238.698 138.5,236.5C 140.213,235.365 140.88,233.698 140.5,231.5C 140.263,230.209 140.596,229.209 141.5,228.5C 143.213,227.365 143.88,225.698 143.5,223.5C 145.213,222.365 145.88,220.698 145.5,218.5C 147.655,216.383 148.655,213.716 148.5,210.5C 150.213,209.365 150.88,207.698 150.5,205.5C 152.213,204.365 152.88,202.698 152.5,200.5C 154.655,198.383 155.655,195.716 155.5,192.5C 157.241,190.605 158.241,188.272 158.5,185.5C 159.221,183.618 160.221,183.285 161.5,184.5 Z"/></g>
<g><path style="opacity:1" fill="#fbfbfb" d="M 261.5,184.5 C 273.5,184.5 285.5,184.5 297.5,184.5C 297.5,199.833 297.5,215.167 297.5,230.5C 290.5,230.5 283.5,230.5 276.5,230.5C 276.826,221.983 276.493,213.65 275.5,205.5C 271.833,205.5 268.167,205.5 264.5,205.5C 259.736,205.769 255.403,207.102 251.5,209.5C 250.035,210.737 248.368,211.737 246.5,212.5C 244.973,212.427 243.973,213.094 243.5,214.5C 243.167,215.5 242.5,216.167 241.5,216.5C 239.738,217.262 238.738,218.596 238.5,220.5C 235.479,223.84 233.646,227.84 233,232.5C 232.333,238.167 232.333,243.833 233,249.5C 233.21,251.058 233.71,252.391 234.5,253.5C 234.054,256.01 234.72,258.01 236.5,259.5C 238.008,261.181 239.008,263.181 239.5,265.5C 239.525,268.179 240.858,269.512 243.5,269.5C 243.973,270.906 244.973,271.573 246.5,271.5C 247.659,273.25 249.326,274.25 251.5,274.5C 254.557,276.095 257.89,277.262 261.5,278C 273.495,278.5 285.495,278.667 297.5,278.5C 297.5,285.167 297.5,291.833 297.5,298.5C 285.833,298.5 274.167,298.5 262.5,298.5C 259.518,298.037 256.518,297.704 253.5,297.5C 248.767,295.256 243.767,293.589 238.5,292.5C 236.847,292.34 235.514,291.674 234.5,290.5C 234.027,289.094 233.027,288.427 231.5,288.5C 230.415,286.413 228.749,285.08 226.5,284.5C 225.5,282.833 224.167,281.5 222.5,280.5C 221.5,280.167 220.833,279.5 220.5,278.5C 220.573,276.973 219.906,275.973 218.5,275.5C 216.461,270.765 214.461,266.099 212.5,261.5C 211.662,261.158 211.328,260.492 211.5,259.5C 210.782,250.518 210.448,241.518 210.5,232.5C 211.924,226.208 213.591,219.874 215.5,213.5C 215.5,213.167 215.5,212.833 215.5,212.5C 216.906,212.027 217.573,211.027 217.5,209.5C 221.776,204.886 226.109,200.22 230.5,195.5C 232.027,195.573 233.027,194.906 233.5,193.5C 235.027,193.573 236.027,192.906 236.5,191.5C 238.698,191.88 240.365,191.213 241.5,189.5C 246.165,188.943 250.498,187.61 254.5,185.5C 256.717,184.631 259.05,184.298 261.5,184.5 Z"/></g>
<g><path style="opacity:1" fill="#fcfcfc" d="M 347.5,185.5 C 354.603,186.09 361.269,188.09 367.5,191.5C 369.452,194.118 371.785,196.452 374.5,198.5C 374.427,200.027 375.094,201.027 376.5,201.5C 376.12,203.698 376.787,205.365 378.5,206.5C 379.29,213.471 379.623,220.471 379.5,227.5C 377.98,229.89 376.98,232.557 376.5,235.5C 375.094,235.973 374.427,236.973 374.5,238.5C 373.094,238.973 372.427,239.973 372.5,241.5C 369.322,245.336 365.322,248.002 360.5,249.5C 357.215,249.928 354.215,250.928 351.5,252.5C 341.985,252.173 332.652,252.506 323.5,253.5C 322.504,268.324 322.171,283.324 322.5,298.5C 316.167,298.5 309.833,298.5 303.5,298.5C 303.5,276.5 303.5,254.5 303.5,232.5C 317.01,232.829 330.344,232.496 343.5,231.5C 344.791,231.737 345.791,231.404 346.5,230.5C 348.302,229.542 350.302,228.875 352.5,228.5C 355.297,228.033 356.631,226.367 356.5,223.5C 357.641,220.36 357.808,217.027 357,213.5C 355.924,210.921 354.091,209.254 351.5,208.5C 350.209,208.737 349.209,208.404 348.5,207.5C 348.119,206.069 347.119,205.236 345.5,205C 331.504,204.5 317.504,204.333 303.5,204.5C 303.5,198.167 303.5,191.833 303.5,185.5C 318.167,185.5 332.833,185.5 347.5,185.5 Z"/></g>
<g><path style="opacity:0.322" fill="#4e4e4e" d="M 39.5,182.5 C 39.8799,184.698 39.2132,186.365 37.5,187.5C 37.7959,185.597 38.4625,183.93 39.5,182.5 Z"/></g>
<g><path style="opacity:0.192" fill="#494949" d="M 161.5,184.5 C 162.906,184.973 163.573,185.973 163.5,187.5C 162.094,187.027 161.427,186.027 161.5,184.5 Z"/></g>
<g><path style="opacity:0.627" fill="#535353" d="M 254.5,185.5 C 250.498,187.61 246.165,188.943 241.5,189.5C 245.403,187.102 249.736,185.769 254.5,185.5 Z"/></g>
<g><path style="opacity:0.682" fill="#4f4f4f" d="M 158.5,185.5 C 158.241,188.272 157.241,190.605 155.5,192.5C 155.552,189.654 156.552,187.32 158.5,185.5 Z"/></g>
<g><path style="opacity:0.698" fill="#5a5a5a" d="M 241.5,189.5 C 240.365,191.213 238.698,191.88 236.5,191.5C 237.78,190.069 239.447,189.402 241.5,189.5 Z"/></g>
<g><path style="opacity:0.851" fill="#747474" d="M 163.5,188.5 C 165.065,190.509 166.065,192.843 166.5,195.5C 164.166,193.824 163.166,191.491 163.5,188.5 Z"/></g>
<g><path style="opacity:0.396" fill="#3f3f3f" d="M 236.5,191.5 C 236.027,192.906 235.027,193.573 233.5,193.5C 233.973,192.094 234.973,191.427 236.5,191.5 Z"/></g>
<g><path style="opacity:0.318" fill="#3e3e3e" d="M 367.5,191.5 C 370.855,192.855 373.189,195.189 374.5,198.5C 371.785,196.452 369.452,194.118 367.5,191.5 Z"/></g>
<g><path style="opacity:0.529" fill="#5b5b5b" d="M 233.5,193.5 C 233.027,194.906 232.027,195.573 230.5,195.5C 230.973,194.094 231.973,193.427 233.5,193.5 Z"/></g>
<g><path style="opacity:0.09" fill="#323232" d="M 49.5,193.5 C 49.7709,195.38 49.1042,196.713 47.5,197.5C 47.6596,195.847 48.3263,194.514 49.5,193.5 Z"/></g>
<g><path style="opacity:0.722" fill="#6a6a6a" d="M 155.5,192.5 C 155.655,195.716 154.655,198.383 152.5,200.5C 152.98,197.557 153.98,194.89 155.5,192.5 Z"/></g>
<g><path style="opacity:0.682" fill="#5d5d5d" d="M 166.5,195.5 C 167.537,196.93 168.204,198.597 168.5,200.5C 166.787,199.365 166.12,197.698 166.5,195.5 Z"/></g>
<g><path style="opacity:0.133" fill="#2e2e2e" d="M 374.5,198.5 C 375.906,198.973 376.573,199.973 376.5,201.5C 375.094,201.027 374.427,200.027 374.5,198.5 Z"/></g>
<g><path style="opacity:0.133" fill="#414141" d="M 46.5,199.5 C 46.7709,201.38 46.1042,202.713 44.5,203.5C 44.6596,201.847 45.3263,200.514 46.5,199.5 Z"/></g>
<g><path style="opacity:0.675" fill="#6c6c6c" d="M 230.5,195.5 C 226.109,200.22 221.776,204.886 217.5,209.5C 218.663,205.992 220.663,202.992 223.5,200.5C 225.592,198.395 227.925,196.728 230.5,195.5 Z"/></g>
<g><path style="opacity:0.698" fill="#5a5a5a" d="M 152.5,200.5 C 152.88,202.698 152.213,204.365 150.5,205.5C 150.402,203.447 151.069,201.78 152.5,200.5 Z"/></g>
<g><path style="opacity:0.659" fill="#575757" d="M 168.5,200.5 C 169.537,201.93 170.204,203.597 170.5,205.5C 168.787,204.365 168.12,202.698 168.5,200.5 Z"/></g>
<g><path style="opacity:0.737" fill="#5e5e5e" d="M 376.5,201.5 C 377.931,202.78 378.598,204.447 378.5,206.5C 376.787,205.365 376.12,203.698 376.5,201.5 Z"/></g>
<g><path style="opacity:0.132" fill="#363636" d="M 302.5,184.5 C 302.5,191.5 302.5,198.5 302.5,205.5C 316.677,205.171 330.677,205.504 344.5,206.5C 330.163,206.667 315.829,206.5 301.5,206C 301.111,199.563 300.778,193.063 300.5,186.5C 300.855,185.478 301.522,184.811 302.5,184.5 Z"/></g>
<g><path style="opacity:0.059" fill="#2c2c2c" d="M 29.5,203.5 C 29.5979,205.553 28.9313,207.22 27.5,208.5C 27.4021,206.447 28.0687,204.78 29.5,203.5 Z"/></g>
<g><path style="opacity:0.192" fill="#464646" d="M 44.5,203.5 C 44.2927,206.241 43.2927,208.574 41.5,210.5C 41.7073,207.759 42.7073,205.426 44.5,203.5 Z"/></g>
<g><path style="opacity:0.034" fill="#161616" d="M 264.5,206.5 C 264.5,206.167 264.5,205.833 264.5,205.5C 268.167,205.5 271.833,205.5 275.5,205.5C 275.5,213.833 275.5,222.167 275.5,230.5C 274.508,222.684 274.174,214.684 274.5,206.5C 271.167,206.5 267.833,206.5 264.5,206.5 Z"/></g>
<g><path style="opacity:0.655" fill="#535353" d="M 150.5,205.5 C 150.88,207.698 150.213,209.365 148.5,210.5C 148.402,208.447 149.069,206.78 150.5,205.5 Z"/></g>
<g><path style="opacity:0.133" fill="#414141" d="M 264.5,205.5 C 264.5,205.833 264.5,206.167 264.5,206.5C 260.263,207.401 255.93,208.401 251.5,209.5C 255.403,207.102 259.736,205.769 264.5,205.5 Z"/></g>
<g><path style="opacity:0.718" fill="#5b5b5b" d="M 171.5,208.5 C 172.931,209.78 173.598,211.447 173.5,213.5C 171.787,212.365 171.12,210.698 171.5,208.5 Z"/></g>
<g><path style="opacity:0.106" fill="#333333" d="M 217.5,209.5 C 217.573,211.027 216.906,212.027 215.5,212.5C 215.427,210.973 216.094,209.973 217.5,209.5 Z"/></g>
<g><path style="opacity:0.004" fill="#292929" d="M 246.5,212.5 C 246.027,213.906 245.027,214.573 243.5,214.5C 243.973,213.094 244.973,212.427 246.5,212.5 Z"/></g>
<g><path style="opacity:0.733" fill="#686868" d="M 148.5,210.5 C 148.655,213.716 147.655,216.383 145.5,218.5C 145.98,215.557 146.98,212.89 148.5,210.5 Z"/></g>
<g><path style="opacity:0.686" fill="#555555" d="M 173.5,213.5 C 174.931,214.78 175.598,216.447 175.5,218.5C 173.787,217.365 173.12,215.698 173.5,213.5 Z"/></g>
<g><path style="opacity:0.004" fill="#2b2b2b" d="M 241.5,216.5 C 241.262,218.404 240.262,219.738 238.5,220.5C 238.738,218.596 239.738,217.262 241.5,216.5 Z"/></g>
<g><path style="opacity:0.314" fill="#373737" d="M 378.5,206.5 C 380.055,210.203 380.722,214.203 380.5,218.5C 380.498,221.686 380.165,224.686 379.5,227.5C 379.623,220.471 379.29,213.471 378.5,206.5 Z"/></g>
<g><path style="opacity:0.022" fill="#2f2f2f" d="M 351.5,208.5 C 354.091,209.254 355.924,210.921 357,213.5C 357.808,217.027 357.641,220.36 356.5,223.5C 357.625,217.468 355.959,212.468 351.5,208.5 Z"/></g>
<g><path style="opacity:0.698" fill="#585858" d="M 145.5,218.5 C 145.88,220.698 145.213,222.365 143.5,223.5C 143.402,221.447 144.069,219.78 145.5,218.5 Z"/></g>
<g><path style="opacity:0.659" fill="#666666" d="M 215.5,213.5 C 213.591,219.874 211.924,226.208 210.5,232.5C 210.5,231.5 210.5,230.5 210.5,229.5C 210.948,223.685 212.615,218.352 215.5,213.5 Z"/></g>
<g><path style="opacity:0.859" fill="#7b7b7b" d="M 175.5,219.5 C 177.065,221.509 178.065,223.843 178.5,226.5C 176.166,224.824 175.166,222.491 175.5,219.5 Z"/></g>
<g><path style="opacity:0.725" fill="#5b5b5b" d="M 20.5,222.5 C 20.8799,224.698 20.2132,226.365 18.5,227.5C 18.4021,225.447 19.0687,223.78 20.5,222.5 Z"/></g>
<g><path style="opacity:0.643" fill="#5b5b5b" d="M 143.5,223.5 C 143.88,225.698 143.213,227.365 141.5,228.5C 141.796,226.597 142.463,224.93 143.5,223.5 Z"/></g>
<g><path style="opacity:0.533" fill="#5d5d5d" d="M 356.5,223.5 C 356.631,226.367 355.297,228.033 352.5,228.5C 353.864,226.809 355.197,225.142 356.5,223.5 Z"/></g>
<g><path style="opacity:0.216" fill="#434343" d="M 36.5,220.5 C 35.9579,223.912 34.6246,226.912 32.5,229.5C 33.0421,226.088 34.3754,223.088 36.5,220.5 Z"/></g>
<g><path style="opacity:0.718" fill="#666666" d="M 178.5,226.5 C 179.537,227.93 180.204,229.597 180.5,231.5C 178.787,230.365 178.12,228.698 178.5,226.5 Z"/></g>
<g><path style="opacity:0.419" fill="#535353" d="M 261.5,184.5 C 273.902,183.17 286.402,183.17 299,184.5C 299.5,200.163 299.667,215.83 299.5,231.5C 291.4,232.159 283.4,231.826 275.5,230.5C 275.5,222.167 275.5,213.833 275.5,205.5C 276.493,213.65 276.826,221.983 276.5,230.5C 283.5,230.5 290.5,230.5 297.5,230.5C 297.5,215.167 297.5,199.833 297.5,184.5C 285.5,184.5 273.5,184.5 261.5,184.5 Z"/></g>
<g><path style="opacity:0.317" fill="#383838" d="M 346.5,230.5 C 345.791,231.404 344.791,231.737 343.5,231.5C 329.833,231.5 316.167,231.5 302.5,231.5C 302.5,254.167 302.5,276.833 302.5,299.5C 301.883,299.389 301.383,299.056 301,298.5C 300.833,297 300.667,295.5 300.5,294C 301.289,273.188 301.456,252.355 301,231.5C 316.089,230.509 331.255,230.176 346.5,230.5 Z"/></g>
<g><path style="opacity:0.925" fill="#8b8b8b" d="M 483.5,231.5 C 482.167,232.167 480.833,232.833 479.5,233.5C 479.958,230.691 481.291,230.024 483.5,231.5 Z"/></g>
<g><path style="opacity:1" fill="#e9e9e9" d="M 483.5,231.5 C 485.426,233.293 487.759,234.293 490.5,234.5C 490.982,235.416 491.315,236.416 491.5,237.5C 490.157,240.85 488.823,244.183 487.5,247.5C 487.737,248.791 487.404,249.791 486.5,250.5C 484.992,252.181 483.992,254.181 483.5,256.5C 483.598,258.553 482.931,260.22 481.5,261.5C 479.043,264.751 477.376,268.418 476.5,272.5C 474.043,275.751 472.376,279.418 471.5,283.5C 469.659,285.849 468.326,288.515 467.5,291.5C 467.737,292.791 467.404,293.791 466.5,294.5C 464.043,297.751 462.376,301.418 461.5,305.5C 459.375,308.088 458.042,311.088 457.5,314.5C 457.672,315.492 457.338,316.158 456.5,316.5C 454.043,319.751 452.376,323.418 451.5,327.5C 449.043,330.751 447.376,334.418 446.5,338.5C 444.043,341.751 442.376,345.418 441.5,349.5C 437.212,356.347 433.879,363.68 431.5,371.5C 429.659,373.849 428.326,376.515 427.5,379.5C 425.264,383.645 423.264,387.978 421.5,392.5C 419.93,395.314 418.597,398.314 417.5,401.5C 417.737,402.791 417.404,403.791 416.5,404.5C 414.326,407.515 412.659,410.849 411.5,414.5C 409.93,417.314 408.597,420.314 407.5,423.5C 406.069,424.78 405.402,426.447 405.5,428.5C 403.659,430.849 402.326,433.515 401.5,436.5C 399.93,439.314 398.597,442.314 397.5,445.5C 397.343,449.273 395.676,450.273 392.5,448.5C 392.027,447.094 391.027,446.427 389.5,446.5C 384.358,445.458 379.691,443.458 375.5,440.5C 374.817,438.824 373.483,438.157 371.5,438.5C 355.87,432.016 340.537,425.016 325.5,417.5C 324.817,415.824 323.483,415.157 321.5,415.5C 318.759,415.293 316.426,414.293 314.5,412.5C 313.817,410.824 312.483,410.157 310.5,410.5C 306.503,409.397 302.836,407.731 299.5,405.5C 298.817,403.824 297.483,403.157 295.5,403.5C 292.088,402.958 289.088,401.625 286.5,399.5C 285.817,397.824 284.483,397.157 282.5,397.5C 279.759,397.293 277.426,396.293 275.5,394.5C 274.817,392.824 273.483,392.157 271.5,392.5C 263.871,389.683 256.537,386.35 249.5,382.5C 248.817,380.824 247.483,380.157 245.5,380.5C 242.088,379.958 239.088,378.625 236.5,376.5C 235.817,374.824 234.483,374.157 232.5,374.5C 221.085,370.29 210.085,365.29 199.5,359.5C 198.817,357.824 197.483,357.157 195.5,357.5C 191.418,356.624 187.751,354.957 184.5,352.5C 183.699,350.958 183.366,349.292 183.5,347.5C 183.992,345.181 184.992,343.181 186.5,341.5C 187.708,340.766 189.041,340.433 190.5,340.5C 196.587,342.411 202.253,345.077 207.5,348.5C 209.426,350.293 211.759,351.293 214.5,351.5C 216.819,351.992 218.819,352.992 220.5,354.5C 222.426,356.293 224.759,357.293 227.5,357.5C 229.153,357.66 230.486,358.326 231.5,359.5C 233.426,361.293 235.759,362.293 238.5,362.5C 240.819,362.992 242.819,363.992 244.5,365.5C 247.088,367.625 250.088,368.958 253.5,369.5C 255.153,369.66 256.486,370.326 257.5,371.5C 259.426,373.293 261.759,374.293 264.5,374.5C 266.153,374.66 267.486,375.326 268.5,376.5C 271.088,378.625 274.088,379.958 277.5,380.5C 279.153,380.66 280.486,381.326 281.5,382.5C 284.088,384.625 287.088,385.958 290.5,386.5C 292.153,386.66 293.486,387.326 294.5,388.5C 296.426,390.293 298.759,391.293 301.5,391.5C 303.819,391.992 305.819,392.992 307.5,394.5C 309.426,396.293 311.759,397.293 314.5,397.5C 316.153,397.66 317.486,398.326 318.5,399.5C 321.751,401.957 325.418,403.624 329.5,404.5C 331.153,404.66 332.486,405.326 333.5,406.5C 335.426,408.293 337.759,409.293 340.5,409.5C 341.514,410.674 342.847,411.34 344.5,411.5C 345.492,411.328 346.158,411.662 346.5,412.5C 347.78,413.931 349.447,414.598 351.5,414.5C 353.153,414.66 354.486,415.326 355.5,416.5C 358.088,418.625 361.088,419.958 364.5,420.5C 367.485,421.326 370.151,422.659 372.5,424.5C 373.78,425.931 375.447,426.598 377.5,426.5C 379.153,426.66 380.486,427.326 381.5,428.5C 383.181,430.008 385.181,431.008 387.5,431.5C 388.75,431.423 389.583,430.756 390,429.5C 400.668,404.837 411.835,380.504 423.5,356.5C 425.176,355.817 425.843,354.483 425.5,352.5C 434.317,331.538 443.65,310.872 453.5,290.5C 455.176,289.817 455.843,288.483 455.5,286.5C 456.463,283.256 457.796,280.256 459.5,277.5C 461.176,276.817 461.843,275.483 461.5,273.5C 463.599,267.185 466.266,261.185 469.5,255.5C 471.176,254.817 471.843,253.483 471.5,251.5C 473.65,245.206 476.316,239.206 479.5,233.5C 480.833,232.833 482.167,232.167 483.5,231.5 Z"/></g>
<g><path style="opacity:0.184" fill="#444444" d="M 483.5,231.5 C 486.241,231.707 488.574,232.707 490.5,234.5C 487.759,234.293 485.426,233.293 483.5,231.5 Z"/></g>
<g><path style="opacity:0.908" fill="#c4c4c4" d="M 343.5,231.5 C 330.344,232.496 317.01,232.829 303.5,232.5C 303.5,254.5 303.5,276.5 303.5,298.5C 309.833,298.5 316.167,298.5 322.5,298.5C 322.171,283.324 322.504,268.324 323.5,253.5C 323.5,268.833 323.5,284.167 323.5,299.5C 316.5,300.833 309.5,300.833 302.5,299.5C 302.5,276.833 302.5,254.167 302.5,231.5C 316.167,231.5 329.833,231.5 343.5,231.5 Z"/></g>
<g><path style="opacity:0.294" fill="#3e3e3e" d="M 379.5,227.5 C 379.585,230.649 378.585,233.316 376.5,235.5C 376.98,232.557 377.98,229.89 379.5,227.5 Z"/></g>
<g><path style="opacity:0.718" fill="#5e5e5e" d="M 140.5,231.5 C 140.88,233.698 140.213,235.365 138.5,236.5C 138.402,234.447 139.069,232.78 140.5,231.5 Z"/></g>
<g><path style="opacity:0.682" fill="#5e5e5e" d="M 180.5,231.5 C 181.537,232.93 182.204,234.597 182.5,236.5C 180.787,235.365 180.12,233.698 180.5,231.5 Z"/></g>
<g><path style="opacity:0.245" fill="#353535" d="M 210.5,229.5 C 210.5,230.5 210.5,231.5 210.5,232.5C 210.448,241.518 210.782,250.518 211.5,259.5C 210.776,257.782 210.109,255.948 209.5,254C 209.216,245.861 209.549,237.694 210.5,229.5 Z"/></g>
<g><path style="opacity:0.133" fill="#404040" d="M 376.5,235.5 C 376.573,237.027 375.906,238.027 374.5,238.5C 374.427,236.973 375.094,235.973 376.5,235.5 Z"/></g>
<g><path style="opacity:0.098" fill="#353535" d="M 29.5,235.5 C 29.7709,237.38 29.1042,238.713 27.5,239.5C 27.6596,237.847 28.3263,236.514 29.5,235.5 Z"/></g>
<g><path style="opacity:0.039" fill="#282828" d="M 161.5,239.5 C 160.833,239.5 160.167,239.5 159.5,239.5C 160.167,234.167 160.833,234.167 161.5,239.5 Z"/></g>
<g><path style="opacity:0.671" fill="#606060" d="M 138.5,236.5 C 138.88,238.698 138.213,240.365 136.5,241.5C 136.796,239.597 137.463,237.93 138.5,236.5 Z"/></g>
<g><path style="opacity:0.066" fill="#363636" d="M 238.5,220.5 C 233.813,231.06 232.48,242.06 234.5,253.5C 233.71,252.391 233.21,251.058 233,249.5C 232.333,243.833 232.333,238.167 233,232.5C 233.646,227.84 235.479,223.84 238.5,220.5 Z"/></g>
<g><path style="opacity:0.02" fill="#353535" d="M 374.5,238.5 C 374.573,240.027 373.906,241.027 372.5,241.5C 372.427,239.973 373.094,238.973 374.5,238.5 Z"/></g>
<g><path style="opacity:0.11" fill="#3f3f3f" d="M 490.5,234.5 C 491.995,234.415 492.995,235.081 493.5,236.5C 492.248,240.678 490.248,244.345 487.5,247.5C 488.823,244.183 490.157,240.85 491.5,237.5C 491.315,236.416 490.982,235.416 490.5,234.5 Z"/></g>
<g><path style="opacity:0.333" fill="#414141" d="M 159.5,239.5 C 158.63,244.223 156.964,248.556 154.5,252.5C 155.213,247.676 156.88,243.343 159.5,239.5 Z"/></g>
<g><path style="opacity:0.42" fill="#474747" d="M 161.5,239.5 C 162.117,239.611 162.617,239.944 163,240.5C 169.847,260.188 176.681,279.854 183.5,299.5C 175.212,279.98 167.879,259.98 161.5,239.5 Z"/></g>
<g><path style="opacity:0.757" fill="#626262" d="M 183.5,239.5 C 184.931,240.78 185.598,242.447 185.5,244.5C 183.787,243.365 183.12,241.698 183.5,239.5 Z"/></g>
<g><path style="opacity:0.086" fill="#2c2c2c" d="M 11.5,241.5 C 11.5979,243.553 10.9313,245.22 9.5,246.5C 9.40206,244.447 10.0687,242.78 11.5,241.5 Z"/></g>
<g><path style="opacity:0.749" fill="#626262" d="M 135.5,244.5 C 135.88,246.698 135.213,248.365 133.5,249.5C 133.402,247.447 134.069,245.78 135.5,244.5 Z"/></g>
<g><path style="opacity:0.718" fill="#5b5b5b" d="M 185.5,244.5 C 186.931,245.78 187.598,247.447 187.5,249.5C 185.787,248.365 185.12,246.698 185.5,244.5 Z"/></g>
<g><path style="opacity:0.239" fill="#454545" d="M 26.5,241.5 C 25.9579,244.912 24.6246,247.912 22.5,250.5C 23.0421,247.088 24.3754,244.088 26.5,241.5 Z"/></g>
<g><path style="opacity:0.035" fill="#272727" d="M 8.5,248.5 C 8.3404,250.153 7.67373,251.486 6.5,252.5C 6.22911,250.62 6.89578,249.287 8.5,248.5 Z"/></g>
<g><path style="opacity:0.008" fill="#303030" d="M 360.5,249.5 C 357.916,251.472 354.916,252.472 351.5,252.5C 354.215,250.928 357.215,249.928 360.5,249.5 Z"/></g>
<g><path style="opacity:0.702" fill="#5a5a5a" d="M 133.5,249.5 C 133.88,251.698 133.213,253.365 131.5,254.5C 131.402,252.447 132.069,250.78 133.5,249.5 Z"/></g>
<g><path style="opacity:0.663" fill="#535353" d="M 187.5,249.5 C 188.931,250.78 189.598,252.447 189.5,254.5C 187.787,253.365 187.12,251.698 187.5,249.5 Z"/></g>
<g><path style="opacity:0.118" fill="#373737" d="M 486.5,250.5 C 486.539,253.089 485.539,255.089 483.5,256.5C 483.992,254.181 484.992,252.181 486.5,250.5 Z"/></g>
<g><path style="opacity:0.416" fill="#4b4b4b" d="M 351.5,252.5 C 342.73,254.139 333.73,254.972 324.5,255C 325.656,269.092 325.823,283.258 325,297.5C 324.722,298.416 324.222,299.082 323.5,299.5C 323.5,284.167 323.5,268.833 323.5,253.5C 332.652,252.506 341.985,252.173 351.5,252.5 Z"/></g>
<g><path style="opacity:0.914" fill="#8e8e8e" d="M 471.5,251.5 C 471.843,253.483 471.176,254.817 469.5,255.5C 469.66,253.847 470.326,252.514 471.5,251.5 Z"/></g>
<g><path style="opacity:0.004" fill="#3e3e3e" d="M 154.5,252.5 C 153.074,259.568 150.74,266.235 147.5,272.5C 149.064,265.469 151.398,258.802 154.5,252.5 Z"/></g>
<g><path style="opacity:0.635" fill="#5b5b5b" d="M 131.5,254.5 C 131.88,256.698 131.213,258.365 129.5,259.5C 129.796,257.597 130.463,255.93 131.5,254.5 Z"/></g>
<g><path style="opacity:0.541" fill="#494949" d="M 234.5,253.5 C 235.458,255.302 236.125,257.302 236.5,259.5C 234.72,258.01 234.054,256.01 234.5,253.5 Z"/></g>
<g><path style="opacity:0.859" fill="#797979" d="M 189.5,255.5 C 191.065,257.509 192.065,259.843 192.5,262.5C 190.166,260.824 189.166,258.491 189.5,255.5 Z"/></g>
<g><path style="opacity:0.31" fill="#353535" d="M 4.5,256.5 C 4.36596,258.292 4.69929,259.958 5.5,261.5C 1.85701,260.539 1.52368,258.872 4.5,256.5 Z"/></g>
<g><path style="opacity:0.596" fill="#525252" d="M 129.5,259.5 C 129.88,261.698 129.213,263.365 127.5,264.5C 127.796,262.597 128.463,260.93 129.5,259.5 Z"/></g>
<g><path style="opacity:0.357" fill="#4f4f4f" d="M 6.5,261.5 C 8.96741,261.755 10.9674,262.755 12.5,264.5C 10.0326,264.245 8.03259,263.245 6.5,261.5 Z"/></g>
<g><path style="opacity:0.286" fill="#3a3a3a" d="M 18.5,258.5 C 18.4139,260.677 17.7472,262.677 16.5,264.5C 15.0416,265.782 13.7082,265.782 12.5,264.5C 13.675,264.719 14.675,264.386 15.5,263.5C 16.2745,261.604 17.2745,259.937 18.5,258.5 Z"/></g>
<g><path style="opacity:0.702" fill="#646464" d="M 192.5,262.5 C 193.537,263.93 194.204,265.597 194.5,267.5C 192.787,266.365 192.12,264.698 192.5,262.5 Z"/></g>
<g><path style="opacity:0.812" fill="#6e6e6e" d="M 127.5,265.5 C 127.834,268.491 126.834,270.824 124.5,272.5C 124.935,269.843 125.935,267.509 127.5,265.5 Z"/></g>
<g><path style="opacity:0.992" fill="#a5a5a5" d="M 239.5,265.5 C 241.167,266.5 242.5,267.833 243.5,269.5C 240.858,269.512 239.525,268.179 239.5,265.5 Z"/></g>
<g><path style="opacity:0.212" fill="#414141" d="M 481.5,261.5 C 480.624,265.582 478.957,269.249 476.5,272.5C 477.376,268.418 479.043,264.751 481.5,261.5 Z"/></g>
<g><path style="opacity:0.012" fill="#2d2d2d" d="M 243.5,269.5 C 245.027,269.427 246.027,270.094 246.5,271.5C 244.973,271.573 243.973,270.906 243.5,269.5 Z"/></g>
<g><path style="opacity:0.651" fill="#515151" d="M 194.5,267.5 C 195.931,268.78 196.598,270.447 196.5,272.5C 194.787,271.365 194.12,269.698 194.5,267.5 Z"/></g>
<g><path style="opacity:0.157" fill="#3c3c3c" d="M 212.5,261.5 C 214.461,266.099 216.461,270.765 218.5,275.5C 214.89,271.604 212.89,266.937 212.5,261.5 Z"/></g>
<g><path style="opacity:0.102" fill="#323232" d="M 246.5,271.5 C 248.674,271.75 250.341,272.75 251.5,274.5C 249.326,274.25 247.659,273.25 246.5,271.5 Z"/></g>
<g><path style="opacity:0.616" fill="#575757" d="M 124.5,272.5 C 124.88,274.698 124.213,276.365 122.5,277.5C 122.796,275.597 123.463,273.93 124.5,272.5 Z"/></g>
<g><path style="opacity:0.62" fill="#545454" d="M 196.5,272.5 C 197.537,273.93 198.204,275.597 198.5,277.5C 196.787,276.365 196.12,274.698 196.5,272.5 Z"/></g>
<g><path style="opacity:0.012" fill="#2f2f2f" d="M 218.5,275.5 C 219.906,275.973 220.573,276.973 220.5,278.5C 219.094,278.027 218.427,277.027 218.5,275.5 Z"/></g>
<g><path style="opacity:0.922" fill="#919191" d="M 461.5,273.5 C 461.843,275.483 461.176,276.817 459.5,277.5C 459.66,275.847 460.326,274.514 461.5,273.5 Z"/></g>
<g><path style="opacity:0.264" fill="#383838" d="M 251.5,274.5 C 256.769,275.649 262.102,276.483 267.5,277C 278.316,277.299 288.982,277.466 299.5,277.5C 299.825,284.687 299.491,291.687 298.5,298.5C 298.824,291.646 298.491,284.979 297.5,278.5C 285.495,278.667 273.495,278.5 261.5,278C 257.89,277.262 254.557,276.095 251.5,274.5 Z"/></g>
<g><path style="opacity:0.384" fill="#444444" d="M 146.5,276.5 C 144.871,282.392 142.871,288.059 140.5,293.5C 141.342,287.3 143.342,281.633 146.5,276.5 Z"/></g>
<g><path style="opacity:0.192" fill="#404040" d="M 476.5,272.5 C 475.624,276.582 473.957,280.249 471.5,283.5C 472.376,279.418 474.043,275.751 476.5,272.5 Z"/></g>
<g><path style="opacity:0.016" fill="#2f2f2f" d="M 222.5,280.5 C 224.167,281.5 225.5,282.833 226.5,284.5C 224.167,284.167 222.833,282.833 222.5,280.5 Z"/></g>
<g><path style="opacity:0.694" fill="#636363" d="M 122.5,277.5 C 122.655,280.716 121.655,283.383 119.5,285.5C 119.98,282.557 120.98,279.89 122.5,277.5 Z"/></g>
<g><path style="opacity:0.047" fill="#323232" d="M 199.5,281.5 C 201.104,282.287 201.771,283.62 201.5,285.5C 200.326,284.486 199.66,283.153 199.5,281.5 Z"/></g>
<g><path style="opacity:0.075" fill="#363636" d="M 471.5,283.5 C 471.206,286.754 469.873,289.421 467.5,291.5C 468.326,288.515 469.659,285.849 471.5,283.5 Z"/></g>
<g><path style="opacity:0.22" fill="#545454" d="M 226.5,284.5 C 228.749,285.08 230.415,286.413 231.5,288.5C 229.251,287.92 227.585,286.587 226.5,284.5 Z"/></g>
<g><path style="opacity:0.655" fill="#5c5c5c" d="M 119.5,285.5 C 119.88,287.698 119.213,289.365 117.5,290.5C 117.796,288.597 118.463,286.93 119.5,285.5 Z"/></g>
<g><path style="opacity:0.039" fill="#2c2c2c" d="M 201.5,286.5 C 203.104,287.287 203.771,288.62 203.5,290.5C 202.326,289.486 201.66,288.153 201.5,286.5 Z"/></g>
<g><path style="opacity:0.188" fill="#424242" d="M 231.5,288.5 C 233.027,288.427 234.027,289.094 234.5,290.5C 232.973,290.573 231.973,289.906 231.5,288.5 Z"/></g>
<g><path style="opacity:0.91" fill="#898989" d="M 455.5,286.5 C 455.843,288.483 455.176,289.817 453.5,290.5C 453.66,288.847 454.326,287.514 455.5,286.5 Z"/></g>
<g><path style="opacity:0.824" fill="#6b6b6b" d="M 238.5,292.5 C 243.767,293.589 248.767,295.256 253.5,297.5C 248.045,296.894 243.045,295.227 238.5,292.5 Z"/></g>
<g><path style="opacity:0.631" fill="#4c4c4c" d="M 117.5,290.5 C 117.88,292.698 117.213,294.365 115.5,295.5C 115.402,293.447 116.069,291.78 117.5,290.5 Z"/></g>
<g><path style="opacity:0.851" fill="#727272" d="M 203.5,291.5 C 205.663,293.954 206.33,296.62 205.5,299.5C 204.25,296.994 203.584,294.327 203.5,291.5 Z"/></g>
<g><path style="opacity:0.004" fill="#373737" d="M 140.5,293.5 C 140.614,296.216 139.614,298.216 137.5,299.5C 137.912,297.113 138.912,295.113 140.5,293.5 Z"/></g>
<g><path style="opacity:0.063" fill="#2e2e2e" d="M 253.5,297.5 C 256.518,297.704 259.518,298.037 262.5,298.5C 262.5,298.833 262.5,299.167 262.5,299.5C 259.219,299.58 256.219,298.913 253.5,297.5 Z"/></g>
<g><path style="opacity:0.868" fill="#8e8e8e" d="M 297.5,278.5 C 298.491,284.979 298.824,291.646 298.5,298.5C 298.389,299.117 298.056,299.617 297.5,300C 285.811,300.721 274.145,300.555 262.5,299.5C 262.5,299.167 262.5,298.833 262.5,298.5C 274.167,298.5 285.833,298.5 297.5,298.5C 297.5,291.833 297.5,285.167 297.5,278.5 Z"/></g>
<g><path style="opacity:0.196" fill="#3e3e3e" d="M 466.5,294.5 C 465.624,298.582 463.957,302.249 461.5,305.5C 462.376,301.418 464.043,297.751 466.5,294.5 Z"/></g>
<g><path style="opacity:0.173" fill="#393939" d="M 461.5,305.5 C 460.958,308.912 459.625,311.912 457.5,314.5C 458.042,311.088 459.375,308.088 461.5,305.5 Z"/></g>
<g><path style="opacity:0.184" fill="#3b3b3b" d="M 456.5,316.5 C 455.624,320.582 453.957,324.249 451.5,327.5C 452.376,323.418 454.043,319.751 456.5,316.5 Z"/></g>
<g><path style="opacity:0.169" fill="#3b3b3b" d="M 451.5,327.5 C 450.624,331.582 448.957,335.249 446.5,338.5C 447.376,334.418 449.043,330.751 451.5,327.5 Z"/></g>
<g><path style="opacity:0.439" fill="#414141" d="M 190.5,340.5 C 189.041,340.433 187.708,340.766 186.5,341.5C 187.103,337.88 188.436,337.547 190.5,340.5 Z"/></g>
<g><path style="opacity:0.188" fill="#3a3a3a" d="M 446.5,338.5 C 445.624,342.582 443.957,346.249 441.5,349.5C 442.376,345.418 444.043,341.751 446.5,338.5 Z"/></g>
<g><path style="opacity:0.192" fill="#424242" d="M 207.5,348.5 C 210.241,348.707 212.574,349.707 214.5,351.5C 211.759,351.293 209.426,350.293 207.5,348.5 Z"/></g>
<g><path style="opacity:0.502" fill="#464646" d="M 183.5,347.5 C 183.366,349.292 183.699,350.958 184.5,352.5C 181.207,351.68 180.874,350.013 183.5,347.5 Z"/></g>
<g><path style="opacity:0.192" fill="#424242" d="M 220.5,354.5 C 223.241,354.707 225.574,355.707 227.5,357.5C 224.759,357.293 222.426,356.293 220.5,354.5 Z"/></g>
<g><path style="opacity:0.922" fill="#8f8f8f" d="M 425.5,352.5 C 425.843,354.483 425.176,355.817 423.5,356.5C 423.66,354.847 424.326,353.514 425.5,352.5 Z"/></g>
<g><path style="opacity:0.894" fill="#8b8b8b" d="M 195.5,357.5 C 197.483,357.157 198.817,357.824 199.5,359.5C 197.847,359.34 196.514,358.674 195.5,357.5 Z"/></g>
<g><path style="opacity:0.122" fill="#3b3b3b" d="M 231.5,359.5 C 234.241,359.707 236.574,360.707 238.5,362.5C 235.759,362.293 233.426,361.293 231.5,359.5 Z"/></g>
<g><path style="opacity:0.212" fill="#454545" d="M 244.5,365.5 C 247.912,366.042 250.912,367.375 253.5,369.5C 250.088,368.958 247.088,367.625 244.5,365.5 Z"/></g>
<g><path style="opacity:0.161" fill="#393939" d="M 441.5,349.5 C 438.733,357.151 435.4,364.484 431.5,371.5C 433.879,363.68 437.212,356.347 441.5,349.5 Z"/></g>
<g><path style="opacity:0.192" fill="#414141" d="M 257.5,371.5 C 260.241,371.707 262.574,372.707 264.5,374.5C 261.759,374.293 259.426,373.293 257.5,371.5 Z"/></g>
<g><path style="opacity:0.914" fill="#8f8f8f" d="M 232.5,374.5 C 234.483,374.157 235.817,374.824 236.5,376.5C 234.847,376.34 233.514,375.674 232.5,374.5 Z"/></g>
<g><path style="opacity:0.059" fill="#303030" d="M 431.5,371.5 C 431.206,374.754 429.873,377.421 427.5,379.5C 428.326,376.515 429.659,373.849 431.5,371.5 Z"/></g>
<g><path style="opacity:0.153" fill="#3d3d3d" d="M 268.5,376.5 C 271.912,377.042 274.912,378.375 277.5,380.5C 274.088,379.958 271.088,378.625 268.5,376.5 Z"/></g>
<g><path style="opacity:0.902" fill="#8e8e8e" d="M 245.5,380.5 C 247.483,380.157 248.817,380.824 249.5,382.5C 247.847,382.34 246.514,381.674 245.5,380.5 Z"/></g>
<g><path style="opacity:0.2" fill="#424242" d="M 281.5,382.5 C 284.912,383.042 287.912,384.375 290.5,386.5C 287.088,385.958 284.088,384.625 281.5,382.5 Z"/></g>
<g><path style="opacity:0.169" fill="#3d3d3d" d="M 294.5,388.5 C 297.241,388.707 299.574,389.707 301.5,391.5C 298.759,391.293 296.426,390.293 294.5,388.5 Z"/></g>
<g><path style="opacity:0.149" fill="#3a3a3a" d="M 427.5,379.5 C 426.82,384.522 424.82,388.856 421.5,392.5C 423.264,387.978 425.264,383.645 427.5,379.5 Z"/></g>
<g><path style="opacity:0.898" fill="#8a8a8a" d="M 271.5,392.5 C 273.483,392.157 274.817,392.824 275.5,394.5C 273.847,394.34 272.514,393.674 271.5,392.5 Z"/></g>
<g><path style="opacity:0.133" fill="#3d3d3d" d="M 307.5,394.5 C 310.241,394.707 312.574,395.707 314.5,397.5C 311.759,397.293 309.426,396.293 307.5,394.5 Z"/></g>
<g><path style="opacity:0.008" fill="#303030" d="M 421.5,392.5 C 421.498,396.165 420.165,399.165 417.5,401.5C 418.597,398.314 419.93,395.314 421.5,392.5 Z"/></g>
<g><path style="opacity:0.906" fill="#909090" d="M 282.5,397.5 C 284.483,397.157 285.817,397.824 286.5,399.5C 284.847,399.34 283.514,398.674 282.5,397.5 Z"/></g>
<g><path style="opacity:0.235" fill="#434343" d="M 318.5,399.5 C 322.582,400.376 326.249,402.043 329.5,404.5C 325.418,403.624 321.751,401.957 318.5,399.5 Z"/></g>
<g><path style="opacity:0.933" fill="#909090" d="M 295.5,403.5 C 297.483,403.157 298.817,403.824 299.5,405.5C 297.847,405.34 296.514,404.674 295.5,403.5 Z"/></g>
<g><path style="opacity:0.2" fill="#434343" d="M 333.5,406.5 C 336.241,406.707 338.574,407.707 340.5,409.5C 337.759,409.293 335.426,408.293 333.5,406.5 Z"/></g>
<g><path style="opacity:0.071" fill="#2e2e2e" d="M 340.5,409.5 C 342.38,409.229 343.713,409.896 344.5,411.5C 342.847,411.34 341.514,410.674 340.5,409.5 Z"/></g>
<g><path style="opacity:0.886" fill="#838383" d="M 310.5,410.5 C 312.483,410.157 313.817,410.824 314.5,412.5C 312.847,412.34 311.514,411.674 310.5,410.5 Z"/></g>
<g><path style="opacity:0.149" fill="#353535" d="M 416.5,404.5 C 415.873,408.42 414.207,411.753 411.5,414.5C 412.659,410.849 414.326,407.515 416.5,404.5 Z"/></g>
<g><path style="opacity:0.153" fill="#404040" d="M 346.5,412.5 C 348.553,412.402 350.22,413.069 351.5,414.5C 349.447,414.598 347.78,413.931 346.5,412.5 Z"/></g>
<g><path style="opacity:0.918" fill="#8c8c8c" d="M 321.5,415.5 C 323.483,415.157 324.817,415.824 325.5,417.5C 323.847,417.34 322.514,416.674 321.5,415.5 Z"/></g>
<g><path style="opacity:0.137" fill="#383838" d="M 355.5,416.5 C 358.912,417.042 361.912,418.375 364.5,420.5C 361.088,419.958 358.088,418.625 355.5,416.5 Z"/></g>
<g><path style="opacity:0.004" fill="#2e2e2e" d="M 411.5,414.5 C 411.498,418.165 410.165,421.165 407.5,423.5C 408.597,420.314 409.93,417.314 411.5,414.5 Z"/></g>
<g><path style="opacity:0.18" fill="#444444" d="M 372.5,424.5 C 374.553,424.402 376.22,425.069 377.5,426.5C 375.447,426.598 373.78,425.931 372.5,424.5 Z"/></g>
<g><path style="opacity:0.243" fill="#4b4b4b" d="M 407.5,423.5 C 407.598,425.553 406.931,427.22 405.5,428.5C 405.402,426.447 406.069,424.78 407.5,423.5 Z"/></g>
<g><path style="opacity:0.137" fill="#3e3e3e" d="M 381.5,428.5 C 384.089,428.461 386.089,429.461 387.5,431.5C 385.181,431.008 383.181,430.008 381.5,428.5 Z"/></g>
<g><path style="opacity:0.09" fill="#343434" d="M 405.5,428.5 C 405.206,431.754 403.873,434.421 401.5,436.5C 402.326,433.515 403.659,430.849 405.5,428.5 Z"/></g>
<g><path style="opacity:0.914" fill="#8e8e8e" d="M 371.5,438.5 C 373.483,438.157 374.817,438.824 375.5,440.5C 373.847,440.34 372.514,439.674 371.5,438.5 Z"/></g>
<g><path style="opacity:0.004" fill="#2d2d2d" d="M 401.5,436.5 C 401.498,440.165 400.165,443.165 397.5,445.5C 398.597,442.314 399.93,439.314 401.5,436.5 Z"/></g>
<g><path style="opacity:0.173" fill="#464646" d="M 389.5,446.5 C 391.027,446.427 392.027,447.094 392.5,448.5C 390.973,448.573 389.973,447.906 389.5,446.5 Z"/></g>
</svg>
